<?xml version="1.0" encoding="UTF-8"?>
<svg width="30px" height="30px" viewBox="0 0 30 30" version="1.1" xmlns="http://www.w3.org/2000/svg" xmlns:xlink="http://www.w3.org/1999/xlink">
    <!-- Generator: Sketch 48.2 (47327) - http://www.bohemiancoding.com/sketch -->
    <title>menu_negative_logo_collapsed</title>
    <desc>Created with Sketch.</desc>
    <defs></defs>
    <g id="Images" stroke="none" stroke-width="1" fill="none" fill-rule="evenodd">
        <g id="Navigation" transform="translate(-65.000000, -160.000000)"></g>
        <g id="menu_negative_logo_collapsed">
            <g id="negative-logo-expanded">
                <path d="M27.7641825,19.7366667 C27.7641825,24.115 24.1907514,27.6766667 19.7985136,27.6766667 L9.94050372,27.6766667 C5.54882329,27.6766667 1.97594963,24.115 1.97594963,19.7366667 L1.97594963,9.90888889 C1.97594963,5.53055556 5.54882329,1.96888889 9.94050372,1.96888889 L19.7985136,1.96888889 C24.1907514,1.96888889 27.7641825,5.53055556 27.7641825,9.90888889 L27.7641825,19.7366667 Z M19.7985136,0 L9.94050372,0 C4.45968208,0 0,4.445 0,9.90888889 L0,19.7366667 C0,25.2005556 4.45968208,29.6455556 9.94050372,29.6455556 L19.7985136,29.6455556 C25.2826796,29.6455556 29.7440339,25.2005556 29.7440339,19.7366667 L29.7440339,9.90888889 C29.7440339,4.445 25.2826796,0 19.7985136,0 L19.7985136,0 Z" id="Fill-1" fill="#FFFFFF"></path>
                <path d="M17.750995,12.1822222 C18.6662304,10.5983333 18.1250041,8.57222222 16.5353262,7.65611111 C14.9456482,6.74277778 12.91173,7.285 11.9959372,8.86944444 C11.0756854,10.4544444 11.6208134,12.4794444 13.2099339,13.3927778 C14.8001693,14.3105556 16.8352023,13.7672222 17.750995,12.1822222" id="Fill-4" fill="#ED8B00"></path>
                <path d="M13.6951982,19.4690556 C14.6148927,17.8840556 14.0697647,15.8551667 12.4806441,14.9423889 C10.8920809,14.0285 8.8564905,14.5718333 7.94069777,16.1557222 C7.0210033,17.7396111 7.56557391,19.7657222 9.15525186,20.6796111 C10.7454872,21.5957222 12.7799628,21.0518333 13.6951982,19.4690556" id="Fill-6" fill="#ED8B00"></path>
                <path d="M16.0497275,19.4676667 C16.9655202,21.0526667 18.9983237,21.596 20.5880017,20.6787778 C22.1760074,19.7665556 22.7228076,17.741 21.8059001,16.1565556 C20.88955,14.5721111 18.8545169,14.0287778 17.2653964,14.9426667 C15.6746036,15.856 15.1294756,17.8837778 16.0497275,19.4676667" id="Fill-8" fill="#ED8B00"></path>
            </g>
        </g>
    </g>
</svg>