<?xml version="1.0" encoding="UTF-8"?>
<svg width="30px" height="30px" viewBox="0 0 30 30" version="1.1" xmlns="http://www.w3.org/2000/svg" xmlns:xlink="http://www.w3.org/1999/xlink">
    <!-- Generator: Sketch 48.1 (47250) - http://www.bohemiancoding.com/sketch -->
    <title>Icons/Negative-logo</title>
    <desc>Created with Sketch.</desc>
    <defs></defs>
    <g id="Menu/Menu-Left" stroke="none" stroke-width="1" fill="none" fill-rule="evenodd" transform="translate(-10.000000, -10.000000)">
        <g id="Logo-Negativo">
            <g id="Images/Negative-logo" transform="translate(10.000000, 10.000000)">
                <g id="Symbol">
                    <path d="M27.4270493,20.0377194 C27.4270493,24.361152 23.896974,27.8781583 19.5580265,27.8781583 L9.81962204,27.8781583 C5.48122508,27.8781583 1.95170047,24.361152 1.95170047,20.0377194 L1.95170047,10.333174 C1.95170047,6.00974138 5.48122508,2.49273511 9.81962204,2.49273511 L19.5580265,2.49273511 C23.896974,2.49273511 27.4270493,6.00974138 27.4270493,10.333174 L27.4270493,20.0377194 Z M19.5580265,0.548534483 L9.81962204,0.548534483 C4.40529824,0.548534483 -0.000275313931,4.93779781 -0.000275313931,10.333174 L-0.000275313931,20.0377194 C-0.000275313931,25.4330956 4.40529824,29.8223589 9.81962204,29.8223589 L19.5580265,29.8223589 C24.975654,29.8223589 29.3828795,25.4330956 29.3828795,20.0377194 L29.3828795,10.333174 C29.3828795,4.93779781 24.975654,0.548534483 19.5580265,0.548534483 L19.5580265,0.548534483 Z" id="Fill-1" fill="#FFFFFF"></path>
                    <path d="M17.5353501,12.5780016 C18.439481,11.0139734 17.9048214,9.01326803 16.3344307,8.1086442 C14.76404,7.20676332 12.7547989,7.74218652 11.8501174,9.30676332 C10.9410307,10.8718887 11.4795448,12.8714969 13.0493848,13.7733777 C14.6203261,14.6796473 16.6306685,14.143127 17.5353501,12.5780016" id="Fill-4" fill="#ED8B00"></path>
                    <path d="M13.5287615,19.7734639 C14.4372974,18.2083386 13.8987834,16.2048903 12.3289433,15.303558 C10.7596539,14.4011285 8.74876096,14.9376489 7.84407938,16.5016771 C6.9355434,18.0657053 7.47350683,20.0664107 9.0438975,20.9688401 C10.6148388,21.8734639 12.6246305,21.336395 13.5287615,19.7734639" id="Fill-6" fill="#ED8B00"></path>
                    <path d="M15.8547237,19.7720925 C16.7594053,21.3372179 18.7675451,21.8737382 20.3379358,20.9680172 C21.9066746,20.0672335 22.4468405,18.0670768 21.5410577,16.5025 C20.6358254,14.9379232 18.6254831,14.4014028 17.0556431,15.3038323 C15.4841511,16.2057132 14.9456371,18.2080643 15.8547237,19.7720925" id="Fill-8" fill="#ED8B00"></path>
                </g>
            </g>
        </g>
    </g>
</svg>